<svg width="32" height="31" viewBox="0 0 32 31" fill="none" xmlns="http://www.w3.org/2000/svg">
<path d="M30.0323 30.7933C31.0011 30.7933 31.7867 30.0323 31.7867 29.0938V1.69961C31.7867 0.76079 31.0011 0 30.0323 0H1.75433C0.785219 0 0 0.76079 0 1.69961V29.0938C0 30.0323 0.785219 30.7933 1.75433 30.7933H30.0323Z" fill="#3B5998"/>
<path d="M21.9322 30.7933V18.8686H26.0641L26.6827 14.2213H21.9322V11.2541C21.9322 9.90862 22.3179 8.99173 24.3097 8.99173L26.8501 8.99058V4.83403C26.4106 4.7775 24.9027 4.65093 23.1484 4.65093C19.4857 4.65093 16.9783 6.81666 16.9783 10.794V14.2213H12.8359V18.8686H16.9783V30.7933H21.9322Z" fill="white"/>
</svg>
