<svg width="53" height="26" viewBox="0 0 53 26" fill="none" xmlns="http://www.w3.org/2000/svg">
<g clip-path="url(#clip0_3078_212)">
<path d="M0.420898 0.401855H9.22873L8.42007 5.90913H6.13616V26H3.27853V5.90913H0.426362L0.420898 0.401855Z" fill="black"/>
<path d="M23.6533 0.401855H32.6633L31.8547 5.90913H29.374V26H26.5219V5.90913H23.6588L23.6533 0.401855Z" fill="black"/>
<path d="M9.76416 8.54456H12.589V26H9.78602L9.76416 8.54456Z" fill="black"/>
<path d="M13.709 0.330933H16.5284V12.2555L19.3259 6.34639H22.6917L19.1565 13.7682L23.1179 26H20.0089L17.3643 17.5028L16.5284 19.2518V26H13.709V0.330933Z" fill="black"/>
<path d="M43.5913 0.330933H46.4435V12.2555L49.2355 6.34639H52.6013L49.0662 13.7682L53.0002 26H49.8912L47.2521 17.5028L46.4435 19.2518V26H43.6186L43.5913 0.330933Z" fill="black"/>
<path d="M11.1794 6.54731C11.964 6.54731 12.6 5.1716 12.6 3.47458C12.6 1.77756 11.964 0.401855 11.1794 0.401855C10.3948 0.401855 9.75879 1.77756 9.75879 3.47458C9.75879 5.1716 10.3948 6.54731 11.1794 6.54731Z" fill="black"/>
<path d="M32.3031 15.5527C32.304 10.1005 34.2431 5.5665 36.7562 5.14093C36.6305 5.14093 36.4611 5.14093 36.3355 5.14093C33.7815 5.46315 31.7866 10.0369 31.7866 15.5705C31.7866 21.104 33.7815 25.6778 36.3355 26C36.4611 26 36.6305 26 36.7562 26C34.2368 25.5734 32.2954 21.0186 32.3031 15.5527Z" fill="#25F4EE"/>
<path d="M37.8544 5.10545C37.7233 5.10545 37.5539 5.10545 37.4282 5.10545C39.9331 5.55296 41.8607 10.0808 41.8607 15.5173C41.8607 20.9537 39.9331 25.4816 37.4282 25.9291C37.5539 25.9291 37.7233 25.9291 37.8544 25.9291C40.522 25.9291 42.6845 21.2517 42.6845 15.4818C42.6845 9.71195 40.522 5.03455 37.8544 5.03455V5.10545Z" fill="#FE2C55"/>
<path d="M37.0894 20.6346C35.7918 20.6346 34.7399 18.3594 34.7399 15.5527C34.7399 12.7461 35.7918 10.4709 37.0894 10.4709C38.387 10.4709 39.4389 12.7461 39.4389 15.5527C39.4359 18.3567 38.3857 20.6281 37.0894 20.6346ZM37.0894 5.10547C34.4218 5.10547 32.2593 9.78287 32.2593 15.5527C32.2593 21.3226 34.4218 26 37.0894 26C39.757 26 41.9195 21.3226 41.9195 15.5527C41.9195 12.782 41.4106 10.1246 40.5048 8.1654C39.599 6.20616 38.3704 5.10547 37.0894 5.10547Z" fill="black"/>
</g>
<defs>
<clipPath id="clip0_3078_212">
<rect width="53" height="26" fill="white"/>
</clipPath>
</defs>
</svg>
